# xmcd
#
# Track frame offsets:
#	150
#	11910
#	27810
#	38670
#	53745
#	64515
#	88380
#	102150
#	117987
#	130010
#	140475
#	153190
#
# Disc length: 2265 seconds
#
# Revision: 2
# Processed by: cddbd v1.4PL0 Copyright (c) Steve Scherf et al.
# Submitted via: CDmax 2.0
#
DISCID=9708d70c
DTITLE=Sleepy LaBeef - Rockabilly Blues
DYEAR=2001
DGENRE=Blues
TTITLE0=Bottle Up and Go
TTITLE1=Bright Lights, Big City
TTITLE2=Fool About You
TTITLE3=Mannish Boy
TTITLE4=Long Tall Sally
TTITLE5=Got You On My Mind
TTITLE6=Rooster Blues
TTITLE7=Night Train To Memphis
TTITLE8=Sugar Sweet
TTITLE9=Make Room for the Blues
TTITLE10=This Train
TTITLE11=Rip It Up
EXTD=LABEL =Rounder Records Corp.\nID =BBB11661-9631-2\nUPC =011661-9631-2
EXTD=2\nCOPYRIGHT =2001
EXTT0=
EXTT1=
EXTT2=
EXTT3=
EXTT4=
EXTT5=
EXTT6=
EXTT7=
EXTT8=
EXTT9=
EXTT10=
EXTT11=
PLAYORDER=
